<svg xmlns="http://www.w3.org/2000/svg" viewBox="0 0 48 48">
  <path d="M24.048828 2 A 1.50015 1.50015 0 0 0 22.998047 2.3847656C22.998047 2.3847656 15.490168 9 6.5 9 A 1.50015 1.50015 0 0 0 5 10.5L5 22.759766C5 29.437814 8.0894135 40.426402 23.417969 46.882812 A 1.50015 1.50015 0 0 0 24.582031 46.882812C39.910586 40.426403 43 29.437814 43 22.759766L43 10.5 A 1.50015 1.50015 0 0 0 41.5 9C32.509832 9 25.001953 2.3847656 25.001953 2.3847656 A 1.50015 1.50015 0 0 0 24.048828 2 z M 24 13C30.07 13 35 17.93 35 24C35 30.07 30.07 35 24 35C17.93 35 13 30.07 13 24C13 17.93 17.93 13 24 13 z M 24 16C23.44875 16 22.91084 16.055332 22.390625 16.162109C22.130518 16.215498 21.87532 16.283274 21.625 16.361328C21.37468 16.439382 21.127852 16.527539 20.888672 16.628906C20.649492 16.730273 20.41614 16.843469 20.189453 16.966797C19.962766 17.090125 19.744092 17.225205 19.53125 17.369141C19.318408 17.513076 19.111707 17.666887 18.914062 17.830078C18.716418 17.993269 18.526797 18.164609 18.345703 18.345703C17.983516 18.707891 17.657012 19.105566 17.369141 19.53125C17.225205 19.744092 17.090125 19.962766 16.966797 20.189453C16.596814 20.869514 16.322275 21.610303 16.162109 22.390625C16.108721 22.650732 16.068386 22.915051 16.041016 23.183594C16.013645 23.452136 16 23.724375 16 24C16 24.415 16.032187 24.823906 16.09375 25.222656C16.155313 25.621406 16.246484 26.009219 16.365234 26.386719C16.483984 26.764219 16.629219 27.131172 16.800781 27.482422C16.972344 27.833672 17.170625 28.170234 17.390625 28.490234L28.490234 17.390625C27.850234 16.950625 27.141719 16.602734 26.386719 16.365234C26.009219 16.246484 25.621406 16.155313 25.222656 16.09375C24.823906 16.032187 24.415 16 24 16 z M 30.609375 19.509766L19.509766 30.609375C19.829766 30.829375 20.166328 31.027656 20.517578 31.199219C21.220078 31.542344 21.979844 31.783125 22.777344 31.90625C23.176094 31.967813 23.585 32 24 32C24.275625 32 24.547864 31.986355 24.816406 31.958984C25.622034 31.876873 26.393789 31.675195 27.111328 31.371094C27.350508 31.269727 27.58386 31.156531 27.810547 31.033203C28.037234 30.909875 28.255908 30.774795 28.46875 30.630859C28.681592 30.486924 28.888293 30.333113 29.085938 30.169922C29.481226 29.84354 29.84354 29.481226 30.169922 29.085938C30.496304 28.690649 30.786548 28.263921 31.033203 27.810547C31.156531 27.58386 31.269727 27.350508 31.371094 27.111328C31.573828 26.632969 31.731113 26.12959 31.837891 25.609375C31.891279 25.349268 31.931614 25.084949 31.958984 24.816406C31.986355 24.547864 32 24.275625 32 24C32 23.585 31.967813 23.176094 31.90625 22.777344C31.844687 22.378594 31.753516 21.990781 31.634766 21.613281C31.516016 21.235781 31.370781 20.868828 31.199219 20.517578C31.027656 20.166328 30.829375 19.829766 30.609375 19.509766 z" fill="#AF1314" />
</svg>