<svg xmlns="http://www.w3.org/2000/svg" viewBox="0 0 48 48">
  <path d="M18.5 4C16.203405 4 14.305701 5.7666235 14.050781 8L10.5 8C8.019 8 6 10.019 6 12.5L6 39.5C6 41.981 8.019 44 10.5 44L20.539062 44C19.585062 42.937 19 41.538 19 40L19 23C19 19.691 21.691 17 25 17L38 17L38 12.5C38 10.019 35.981 8 33.5 8L29.949219 8C29.694299 5.7666235 27.796595 4 25.5 4L18.5 4 z M 18.5 7L25.5 7C26.346499 7 27 7.6535009 27 8.5C27 9.3464991 26.346499 10 25.5 10L18.5 10C17.653501 10 17 9.3464991 17 8.5C17 7.6535009 17.653501 7 18.5 7 z M 25 19C22.791 19 21 20.791 21 23L21 40C21 42.209 22.791 44 25 44L38 44C40.209 44 42 42.209 42 40L42 23C42 20.791 40.209 19 38 19L25 19 z M 27 24L36 24C36.552 24 37 24.448 37 25L37 27C37 27.552 36.552 28 36 28L27 28C26.448 28 26 27.552 26 27L26 25C26 24.448 26.448 24 27 24 z M 26.5 31C27.328 31 28 31.672 28 32.5C28 33.328 27.328 34 26.5 34C25.672 34 25 33.328 25 32.5C25 31.672 25.672 31 26.5 31 z M 31.5 31C32.328 31 33 31.672 33 32.5C33 33.328 32.328 34 31.5 34C30.672 34 30 33.328 30 32.5C30 31.672 30.672 31 31.5 31 z M 36.5 31C37.328 31 38 31.672 38 32.5L38 37.5C38 38.328 37.328 39 36.5 39C35.672 39 35 38.328 35 37.5L35 32.5C35 31.672 35.672 31 36.5 31 z M 26.5 36C27.328 36 28 36.672 28 37.5C28 38.328 27.328 39 26.5 39C25.672 39 25 38.328 25 37.5C25 36.672 25.672 36 26.5 36 z M 31.5 36C32.328 36 33 36.672 33 37.5C33 38.328 32.328 39 31.5 39C30.672 39 30 38.328 30 37.5C30 36.672 30.672 36 31.5 36 z" fill="#AF1314" />
</svg>