<svg xmlns="http://www.w3.org/2000/svg" viewBox="0 0 48 48">
  <path d="M18.5 3C16.203405 3 14.305701 4.7666235 14.050781 7L10.5 7C8.0324991 7 6 9.0324991 6 11.5L6 38.5C6 40.967501 8.0324991 43 10.5 43L23.5 43L37.5 43C39.967501 43 42 40.967501 42 38.5L42 21.5C42 19.203405 40.233377 17.305701 38 17.050781L38 11.5C38 9.0324991 35.967501 7 33.5 7L29.949219 7C29.694299 4.7666235 27.796595 3 25.5 3L18.5 3 z M 18.5 6L25.5 6C26.346499 6 27 6.6535009 27 7.5C27 8.3464991 26.346499 9 25.5 9L18.5 9C17.653501 9 17 8.3464991 17 7.5C17 6.6535009 17.653501 6 18.5 6 z M 10.5 10L14.769531 10C15.581237 11.2019 16.954719 12 18.5 12L25.5 12C27.045281 12 28.418763 11.2019 29.230469 10L33.5 10C34.346499 10 35 10.653501 35 11.5L35 17L23.5 17C21.032499 17 19 19.032499 19 21.5L19 38.5C19 39.027452 19.109157 39.527904 19.279297 40L10.5 40C9.6535009 40 9 39.346499 9 38.5L9 11.5C9 10.653501 9.6535009 10 10.5 10 z M 23.5 20L37.5 20C38.346499 20 39 20.653501 39 21.5L39 38.5C39 39.346499 38.346499 40 37.5 40L23.5 40C22.653501 40 22 39.346499 22 38.5L22 21.5C22 20.653501 22.653501 20 23.5 20 z M 26 23C25.448 23 25 23.448 25 24L25 26C25 26.552 25.448 27 26 27L35 27C35.552 27 36 26.552 36 26L36 24C36 23.448 35.552 23 35 23L26 23 z M 25.5 29 A 1.5 1.5 0 0 0 25.5 32 A 1.5 1.5 0 0 0 25.5 29 z M 30.5 29 A 1.5 1.5 0 0 0 30.5 32 A 1.5 1.5 0 0 0 30.5 29 z M 35.5 29C34.672 29 34 29.672 34 30.5L34 35.5C34 36.328 34.672 37 35.5 37C36.328 37 37 36.328 37 35.5L37 30.5C37 29.672 36.328 29 35.5 29 z M 25.5 34 A 1.5 1.5 0 0 0 25.5 37 A 1.5 1.5 0 0 0 25.5 34 z M 30.5 34 A 1.5 1.5 0 0 0 30.5 37 A 1.5 1.5 0 0 0 30.5 34 z" fill="#AF1314" />
</svg>