<?xml version="1.0" encoding="utf-8"?>
<svg xmlns="http://www.w3.org/2000/svg" viewBox="0 0 48 48" width="144" height="144">
  <path d="M33.5 4C33.135 4 32.788922 4.1529219 32.544922 4.4199219L24.830078 12.882812C24.490078 13.255812 24.404328 13.789094 24.611328 14.246094C24.818328 14.704094 25.277156 15 25.785156 15L29 15L29 24C29 24.828 28.328 25.5 27.5 25.5L22 25.5L22 31L32.5 31C35.538 31 38 28.538 38 25.5L38 15L41.214844 15C41.722844 15 42.182672 14.704094 42.388672 14.246094C42.595672 13.788094 42.509922 13.254812 42.169922 12.882812L34.455078 4.4199219C34.211078 4.1529219 33.865 4 33.5 4 z M 15.5 17C12.462 17 10 19.462 10 22.5L10 33L6.7851562 33C6.2771562 33 5.8173281 33.295906 5.6113281 33.753906C5.4043281 34.211906 5.4900781 34.746141 5.8300781 35.119141L13.544922 43.580078C13.787922 43.847078 14.135 44 14.5 44C14.865 44 15.211078 43.847078 15.455078 43.580078L23.169922 35.119141C23.509922 34.746141 23.595672 34.211906 23.388672 33.753906C23.181672 33.295906 22.722844 33 22.214844 33L19 33L19 24C19 23.172 19.672 22.5 20.5 22.5L26 22.5L26 17L15.5 17 z" fill="#AF1314" />
</svg>