<svg xmlns="http://www.w3.org/2000/svg" viewBox="0 0 48 48">
  <path d="M20 4 A 1.50015 1.50015 0 0 0 18.658203 4.8300781L17.513672 7.1191406C10.905207 7.7301527 5 14.293528 5 23.5 A 1.50015 1.50015 0 0 0 5.6367188 24.726562C5.6367188 24.726562 8 26.648062 8 28.5 A 1.50015 1.50015 0 0 0 8.0195312 28.75C8.1170034 30.392566 9.1280569 31.574996 9.9941406 32.255859C10.574664 32.712233 10.811569 32.767175 11.15625 32.925781C13.253364 39.804439 18.183764 44 24 44C27.276627 44 30.271665 42.373441 32.603516 40.152344C34.738539 38.118725 36.261881 35.552495 37.048828 32.960938C37.414088 32.825111 37.587935 32.839931 38.105469 32.443359C38.995188 31.761594 39.92494 30.455721 39.988281 28.685547 A 1.5009267 1.5009267 0 0 0 40 28.447266C40 28.447266 39.831358 26.125332 42.220703 24.816406 A 1.50015 1.50015 0 0 0 43 23.5C43 22.423873 42.801845 17.719488 39.771484 13.054688C36.741124 8.3898857 30.745718 4 20 4 z M 21.1875 14.146484C22.208051 14.299144 24.807398 14.742106 27.871094 16.158203C29.740101 17.022093 31.557492 18.200403 32.863281 19.71875C34.16907 21.237097 35 23.054606 35 25.5 A 1.50015 1.50015 0 0 0 35.990234 26.910156C35.990234 26.910156 37 27.101349 37 28.5C37 29.435571 36.665911 29.767746 36.28125 30.0625C35.896589 30.357254 35.552734 30.441406 35.552734 30.441406 A 1.50015 1.50015 0 0 0 34.429688 31.548828C33.911366 33.68486 32.459602 36.143613 30.533203 37.978516C28.606804 39.813418 26.260373 41 24 41C19.41 41 15.507731 37.886313 13.791016 31.513672 A 1.50015 1.50015 0 0 0 12.869141 30.498047C12.869141 30.498047 12.358792 30.300263 11.847656 29.898438C11.33652 29.496612 11 29.059481 11 28.5C11 27.820827 12.275391 26.785156 12.275391 26.785156 A 1.50015 1.50015 0 0 0 12.923828 25.974609L13.888672 23.076172L16.583984 17.685547C17.639065 17.463267 19.615011 16.738727 21.1875 14.146484 z M 19 24 A 2 2 0 0 0 19 28 A 2 2 0 0 0 19 24 z M 29 24 A 2 2 0 0 0 29 28 A 2 2 0 0 0 29 24 z" fill="#AF1314" />
</svg>