<?xml version="1.0" encoding="utf-8"?>
<svg xmlns="http://www.w3.org/2000/svg" viewBox="0 0 50 50" width="500" height="500">
  <path d="M10 0C6.691406 0 4 2.691406 4 6C4 9.308594 6.691406 12 10 12C13.308594 12 16 9.308594 16 6C16 2.691406 13.308594 0 10 0 Z M 5.5 13C2.46875 13 0 15.46875 0 18.5L0 33C0 34.101563 0.898438 35 2 35C3.101563 35 4 34.101563 4 33L4 21C4 20.730469 4.230469 20.5 4.5 20.5C4.769531 20.5 5 20.730469 5 21L5 47.3125C5 48.875 5.839844 50 7.40625 50C8.886719 50 10 48.851563 10 47.3125L10 33.6875C10 33.410156 10.222656 33.1875 10.5 33.1875C10.777344 33.1875 11 33.410156 11 33.6875L11 44L16 44L16 45.9375C19.316406 45.597656 20.191406 43.578125 20.90625 41.90625C21.625 40.226563 22.160156 39 25 39L25 37C20.839844 37 19.878906 39.265625 19.09375 41.09375C18.46875 42.554688 17.976563 43.671875 16 43.9375L16 21C16 20.730469 16.230469 20.5 16.5 20.5C16.769531 20.5 17 20.730469 17 21L17 33C17 34.101563 17.898438 35 19 35C20.101563 35 21 34.101563 21 33L21 18.5C21 15.46875 18.53125 13 15.5 13 Z M 38 26C31.382813 26 26 31.382813 26 38C26 44.617188 31.382813 50 38 50C44.617188 50 50 44.617188 50 38C50 31.382813 44.617188 26 38 26 Z M 37.3125 30L38.8125 30L38.8125 31.8125C40.914063 32.113281 41.601563 33.585938 42 35.1875L40.59375 35.1875C40.292969 33.988281 39.59375 33.09375 38.09375 33.09375C35.992188 33.09375 35.6875 34.488281 35.6875 35.1875C35.6875 36.585938 37.09375 37.007813 38.59375 37.40625C40.394531 37.804688 42.40625 38.507813 42.40625 40.90625C42.40625 43.707031 39.8125 44.492188 38.8125 44.59375L38.8125 46L37.3125 46L37.3125 44.5C36.011719 44.398438 33.792969 43.601563 33.59375 40.5L35.09375 40.5C35.09375 41.5 35.699219 43.1875 38 43.1875C40.300781 43.1875 40.8125 42.199219 40.8125 41C40.8125 37.398438 34 39.886719 34 35.1875C34 32.6875 36.113281 31.695313 37.3125 31.59375 Z M 11 46L11 47.59375C11.003906 47.597656 11.027344 47.589844 11.03125 47.59375C11.167969 48.976563 12.210938 50 13.59375 50C15.15625 50 16 48.875 16 47.3125L16 46Z" fill="#AF1314" />
</svg>