<svg xmlns="http://www.w3.org/2000/svg" viewBox="0 0 48 48">
  <path d="M28.572266 1.9941406 A 1.50015 1.50015 0 0 0 28.025391 2.0761719L16.9375 5.7695312 A 1.50015 1.50015 0 0 0 16.90625 5.78125C15.386393 6.326336 14.062719 7.3137101 13.109375 8.6171875 A 1.50015 1.50015 0 0 0 13.080078 8.6582031L8.1191406 15.939453C7.382922 17.01976 6.9880279 18.29897 6.9902344 19.607422L7.0019531 29.773438C7.0028176 32.353933 8.6868436 34.559462 11.017578 35.345703C11.2028 41.221975 16.029399 45.975154 21.955078 46C28.011599 46.024245 32.974601 41.102505 33 35.044922C33.003712 34.147724 32.895591 33.274408 32.695312 32.435547L38.279297 29.033203C39.764501 28.127378 40.898151 26.733623 41.464844 25.076172C42.457536 22.172635 44 16.708923 44 10.5 A 1.50015 1.50015 0 0 0 42.476562 8.9785156 A 1.50015 1.50015 0 0 0 41 10.5C41 16.207077 39.552265 21.399005 38.626953 24.105469C38.289646 25.092018 37.615593 25.922528 36.716797 26.470703L26.373047 32.775391 A 1.50015 1.50015 0 0 0 26.349609 32.791016C25.902102 33.075273 25.342788 33.01767 24.943359 32.673828C23.755297 31.437159 23.75712 29.522475 24.960938 28.294922L30.423828 24.021484 A 1.50015 1.50015 0 0 0 31 22.839844C31 19.618144 29.413645 16.876365 27.052734 15.400391C24.691824 13.924416 21.511647 13.768054 18.732422 15.472656C16.843764 16.632583 15.888774 17.992023 14.439453 19.439453 A 1.50015 1.50015 0 0 0 14 20.5L14 27.482422C12.760307 28.800545 11.844078 30.419896 11.371094 32.220703C10.551741 31.715377 10.001953 30.820283 10.001953 29.771484 A 1.50015 1.50015 0 0 0 10.001953 29.769531L9.9902344 19.603516C9.9888344 18.900649 10.200241 18.212062 10.597656 17.628906L15.53125 10.388672L15.533203 10.386719C16.131739 9.5693071 16.962703 8.9480681 17.917969 8.6054688L28.974609 4.9238281 A 1.50015 1.50015 0 0 0 28.572266 1.9941406 z M 23.039062 17.208984C23.911013 17.217452 24.730471 17.485473 25.462891 17.943359C26.775372 18.763886 27.65619 20.310585 27.849609 22.226562L25.033203 24.431641C24.081094 24.158419 23.079323 24.004029 22.044922 24C20.229079 23.992731 18.515651 24.437564 17 25.216797L17 21.146484C18.267555 19.828725 19.099859 18.767146 20.300781 18.029297C21.242669 17.4516 22.167112 17.200517 23.039062 17.208984 z M 22.033203 27C22.07202 27.000152 22.109768 27.005163 22.148438 27.005859C20.501523 29.398964 20.735141 32.727329 22.857422 34.849609 A 1.50015 1.50015 0 0 0 22.916016 34.904297C24.307534 36.154489 26.37995 36.325271 27.958984 35.322266L29.935547 34.117188C29.968702 34.419203 30.001289 34.721598 30 35.033203C29.981399 39.46962 26.402276 43.017755 21.966797 43C17.53038 42.981399 13.982245 39.402276 14 34.966797C14.018601 30.53038 17.597724 26.982245 22.033203 27 z" fill="#AF1314" />
</svg>