<svg xmlns="http://www.w3.org/2000/svg" viewBox="0 0 48 48">
  <path d="M32.470703 3.9863281 A 1.50015 1.50015 0 0 0 31.439453 4.4394531L24 11.878906L18.560547 6.4394531 A 1.50015 1.50015 0 1 0 16.439453 8.5605469L16.824219 8.9453125L8.7636719 17.005859C5.0935731 20.675958 5.092849 26.668465 8.7597656 30.339844L7.7792969 29.361328L7.640625 29.5C5.4646171 31.676008 5.4646171 35.24782 7.640625 37.423828L8.046875 37.832031L5.4394531 40.439453 A 1.50015 1.50015 0 1 0 7.5605469 42.560547L10.167969 39.953125L10.574219 40.357422C12.750227 42.53343 16.323992 42.53343 18.5 40.357422L18.638672 40.21875L17.654297 39.236328C21.326124 42.908155 27.323221 42.908433 30.994141 39.236328L39.054688 31.175781L39.439453 31.560547 A 1.50015 1.50015 0 1 0 41.560547 29.439453L36.121094 24L43.560547 16.560547 A 1.50015 1.50015 0 1 0 41.439453 14.439453L34 21.878906L26.121094 14L33.560547 6.5605469 A 1.50015 1.50015 0 0 0 32.470703 3.9863281 z M 18.945312 11.066406L36.933594 29.054688L28.873047 37.115234C26.347967 39.64113 22.301563 39.641407 19.775391 37.115234L19.699219 37.037109 A 1.50015 1.50015 0 0 0 17.578125 37.037109L16.378906 38.236328C15.348914 39.26632 13.725305 39.26632 12.695312 38.236328L9.7617188 35.302734C8.7317267 34.272742 8.7317267 32.651086 9.7617188 31.621094L10.960938 30.421875 A 1.50015 1.50015 0 0 0 10.960938 28.300781L10.884766 28.222656C8.3588698 25.697576 8.3585925 21.653126 10.884766 19.126953L18.945312 11.066406 z M 18 19 A 2 2 0 0 0 18 23 A 2 2 0 0 0 18 19 z M 27 28 A 2 2 0 0 0 27 32 A 2 2 0 0 0 27 28 z" fill="#3A3A3A" />
</svg>