<svg xmlns="http://www.w3.org/2000/svg" viewBox="0 0 48 48">
  <path d="M24 4 A 4 4 0 0 0 24 12 A 4 4 0 0 0 24 4 z M 22.121094 14.181641C19.755094 14.795641 18 16.945 18 19.5L18 31C18 31.651878 18.418526 32.201513 19 32.408203L19 42.5 A 1.50015 1.50015 0 1 0 22 42.5L22 32L26 32L26 42.5 A 1.50015 1.50015 0 1 0 29 42.5L29 32.408203C29.582116 32.201859 30.001953 31.652337 30.001953 31L30.001953 19.5C30.000953 16.945 28.244906 14.795641 25.878906 14.181641L24.5 16.25L26 23L24 25L22 23L23.5 16.25L22.121094 14.181641 z" fill="#AF1314" />
</svg>