<svg xmlns="http://www.w3.org/2000/svg" viewBox="0 0 48 48">
  <path d="M24 4 A 4 4 0 0 0 24 12 A 4 4 0 0 0 24 4 z M 22.054688 14.082031C19.194688 14.538031 17 17.014 17 20L17 31C17 32.104 17.896 33 19 33L19 42 A 2.0002 2.0002 0 1 0 23 42L23 32L25 32L25 42 A 2.0002 2.0002 0 1 0 29 42L29 33C29 33 29.001953 33 29.001953 33C30.105953 33 31.001953 32.104 31.001953 31L31.001953 20C31.000953 17.014 28.805312 14.538031 25.945312 14.082031L24.5 16.25L26 23L24 25L22 23L23.5 16.25L22.054688 14.082031 z" fill="#AF1314" />
</svg>