<svg xmlns="http://www.w3.org/2000/svg" viewBox="0 0 667.96 590.63"><defs><style>.cls-1{fill:#fff;}</style></defs><g id="Calque_2" data-name="Calque 2"><g id="Calque_1-2" data-name="Calque 1"><path d="M91.07,173c-8.77,4.36-18,8-26.21,13.2-25.23,16.08-31.64,39.21-19.46,66.56C53.25,270.42,65,285.29,78.16,299c29.05,30.35,61.84,56.32,97.15,78.88,34,21.73,70.18,39.6,107.6,54.82,44.78,18.23,90.77,32.16,139,37.51,29.4,3.27,59.09,4.28,88.16-1.64,22.49-4.57,40.11-17.41,47.58-40.38,4.2-12.91,2.46-26-2.17-38.74-.82-2.27-1.63-4.55-2.45-6.83l1.11-.89c1,.75,2.35,1.29,3,2.28,10.22,15.92,19.18,32.42,22.83,51.25,5.74,29.62-6.56,51.7-34.73,62.75a147.08,147.08,0,0,1-41.68,9.8c-1.31.11-2.6.36-4.5.64.22,1.93.33,3.68.62,5.4,1.82,10.94,2.41,21.83-.56,32.72-4,14.72-16.56,25.43-31.57,26.29Q396.41,577,325.29,581q-83.85,4.78-167.69,9.62c-19.61,1.12-40.33-13.4-45.88-32.11a17.66,17.66,0,0,1-.59-5.43q2.46-85.45,4.91-170.91a7.76,7.76,0,0,0-2.15-5.38C94,359.31,73.36,342.65,54.08,324.55c-19.61-18.4-37-38.92-47.92-64-5-11.49-7.87-23.37-5-36,2.69-12,9.81-21,19.67-27.91C38.53,184.19,59,179,79.86,174.9,83.61,174.17,87.4,173.64,91.07,173ZM294.64,475.74l.08-1.84c-.73-.35-1.45-.71-2.19-1-32-14.54-64.11-28.71-95.85-43.74-20.25-9.59-40.8-18.92-58-33.92-.15-.13-.6.09-1.71.3-.68,20.08-2.09,40.34-1.77,60.57.19,11.93,14,22.48,26.07,22.19,35-.83,69.95-1.72,104.93-2.47C275.7,475.57,285.17,475.74,294.64,475.74Zm55.08,62c.28-20.06-15.07-36.27-34.56-36.51a35.69,35.69,0,1,0,34.56,36.51Z"/><path d="M135.39,319.07c-7.08-6.21-13.3-11.45-19.19-17-1.18-1.11-1.56-3.58-1.52-5.4q1.35-61.73,2.91-123.46c1.17-46.81,3-93.61,3.3-140.43.11-17.76,15-33,32-32.74A201.55,201.55,0,0,1,189,4.25Q297.21,26.14,405.29,48.74c24.23,5.06,38.07,20.56,41.31,45.19,2.68,20.49,5,41,7.71,61.5a29,29,0,0,0,2.84,8.89c6.24,12.65,3.69,25.16-7.88,34.55a24.11,24.11,0,0,1,14.05,16.57c.73,2.71,1.68,5.63,1.36,8.31-1.89,15.92,3.4,31.17,4.1,46.84.27,5.91,1.33,11.79,2,17.62-9.43,1.82-9.43,1.82-9.43,11.34a151.57,151.57,0,0,0,1,21.09l14.9-18.33c.74-.9,1.43-1.84,2.17-2.73,9.92-12,13.24-13.21,30.09-10.37-2.67,3.49-5.06,6.75-7.61,9.88-6.52,8-13,16.06-19.75,23.86-2.27,2.61-2.39,4.48-.59,7.38,8.7,14,17.18,28.14,25.72,42.24,1,1.65,1.86,3.38,3.29,6-7,0-13.16.34-19.2-.22-1.68-.16-3.46-2.8-4.61-4.66-5.94-9.64-11.68-19.41-17.52-29.12-.49-.82-1.12-1.58-1.87-2.62-4,2.69-6.28,5.73-6.11,10.69.27,8.44.07,16.9.07,25.63h-17.7V289l10.49-.66c-1.42-12.1-2.8-23.86-4.22-36-16.1,4.74-32,2-47.69,2.79-3,.15-4.57-.67-4.56-4.12q.12-48.24.07-96.5a26.47,26.47,0,0,1,.46-2.92h39.37c-.87-7.12-1.6-13.16-2.35-19.2-1.36-11.08-2.93-22.13-4-33.23-.51-5.27-3.51-8.42-7.36-11.26-9-6.64-19.6-9-30.28-10.88Q321.79,64.1,250,51.33c-26.56-4.74-53.07-9.73-79.69-14.08A52.24,52.24,0,0,0,152,38c-6.85,1.37-10.5,6.88-10.64,14-.86,42.81-1.58,85.64-2.5,128.45-1,44.65-2.09,89.3-3.15,134C135.68,315.49,135.56,316.62,135.39,319.07ZM418.68,222.7c.32,15-2.34,12.3,12.73,12.33,7.82,0,11.71-4.63,11.64-12.54-.06-7.21-4.45-11.69-12.07-11.68C416.4,210.84,419,208.75,418.68,222.7Zm0-50.57c0,2.33,0,4,0,5.58,0,3.82-.15,7.66.23,11.45.11,1.13,1.74,3,2.76,3a40.91,40.91,0,0,0,10.37-.59c5.29-1.11,8.09-5.43,7.57-10.67-.5-5.07-3.87-8.41-9.21-8.74C426.82,172,423.17,172.13,418.72,172.13Z"/><path d="M253.44,255.74V194.3c-1.55,3.31-2.86,6.08-4.14,8.86-3.62,7.86-7.42,15.64-10.75,23.62-1.39,3.34-3.73,3.21-6.42,3.17s-5.49.48-7-3.1c-4-9.33-8.34-18.51-12.55-27.74a9.67,9.67,0,0,0-3.25-4.28c0,1.83,0,3.65,0,5.48.27,17,.48,34,.87,50.94.08,3.3-1.09,4.48-4.32,4.32a100.09,100.09,0,0,0-11.49,0c-3.63.22-4.5-1.43-4.5-4.72q.12-47.22,0-94.44c0-3.11.86-4.36,4.22-4.45,15.18-.4,15.17-.49,21.77,13.09,5.27,10.86,10.58,21.7,16.19,33.22,1.44-3.24,2.63-6.11,4-8.89,5.52-11.38,11.16-22.7,16.58-34.12,1.26-2.66,2.88-3.69,5.77-3.58,5,.18,9.95.05,15.4.05.15,1.76.37,3.19.37,4.61-.05,31.64-.18,63.28-.11,94.93,0,3.62-1.22,4.64-4.6,4.51C264.34,255.6,259.22,255.74,253.44,255.74Z"/><path d="M378.47,203.86c-.11,16.51-3.64,31.81-16.29,43.57-17.65,16.4-47.27,12.62-59.35-8.18-13.44-23.13-13.63-47.13-.32-70.34,14.57-25.39,50.78-25.43,66.6-.75C376.13,179.11,378.44,191.15,378.47,203.86Zm-64.3-1.94c1.19,6.87,1.52,12.47,3.22,17.6,2.45,7.37,6.77,13.41,15.5,14.41,9,1,15.84-2.41,19.65-10.54,6.21-13.27,6.25-26.83-.22-40-3.25-6.63-9.13-10-16.62-10.09s-13.31,3.19-16.13,9.8C316.88,189.37,315.71,196.32,314.17,201.92Z"/><path d="M606.57,151.94H667c0,6.8.17,13.41-.21,20,0,.92-2.82,2.37-4.35,2.41-10,.21-20,.28-30,0-4.22-.11-5.38,1.35-5.34,5.44.11,12.6,0,12.59,12.63,12.56,4.83,0,9.66.1,14.49,0,2.76-.06,3.91,1,3.81,3.81-.16,4.49-.17,9,0,13.49.09,3.08-1.24,4.07-4.18,4-7.5-.11-15,0-22.49-.07-2.95,0-4,1-4.19,4-.69,15.23-.77,15.23,14.51,15.23,7.49,0,15,.08,22.49,0,2.76,0,3.9,1,3.83,3.8-.14,5,.2,10-.17,15-.1,1.33-2,3.61-3.13,3.62-18.67.2-37.33.12-56,.07a8.83,8.83,0,0,1-2.09-.57Z"/><path d="M247.83,325c-4.53,9.8-8.64,18.31-12.37,27-1.49,3.47-3.56,4.66-7.24,4.5-2.91-.13-4.54-1.09-5.7-3.74A264.51,264.51,0,0,0,209.27,326c0,1.64,0,3.27,0,4.91.25,14.32.41,28.65.81,43,.1,3.66-1,4.9-4.77,4.88-12.81-.08-12.84.07-12.85-12.79q0-35.23,0-70.48c0-2,0-3.93,0-6.7,5.44,0,10.39-.29,15.25.19,1.41.14,3,2.29,3.81,3.88,5.57,11.36,10.94,22.82,16.39,34.23a6.73,6.73,0,0,0,1.12,1.23l12-24.67a29.36,29.36,0,0,0,2.34-4.95c2.44-9.1,8.58-11.31,17.27-10.34,3.86.42,5.16,1.39,5.12,5.27-.21,18-.19,36-.23,54,0,8.83-.15,17.67,0,26.49.07,3.4-.9,4.67-4.47,4.74-13.29.24-13.27.36-13.24-13C247.85,352.77,247.83,339.67,247.83,325Z"/><path d="M427.41,378.59c-6.69,0-12.48.22-18.22-.16-1.28-.09-2.85-2-3.55-3.48-3.57-7.35-7.15-14.7-10.18-22.26-1.66-4.12-4.59-3.71-7.73-3.47-3.85.31-2.44,3.38-2.48,5.4-.14,7.8-.05,15.6-.05,24.05-5.56,0-10.68.22-15.74-.21-.88-.07-2.15-2.93-2.16-4.5-.15-18.84-.1-37.67-.1-56.51V288.36c12.75.55,25.23-.28,37.14,1.94,15.54,2.91,24,21.07,19,38.42a31.87,31.87,0,0,1-8.12,13.33c-3,2.9-3.2,4.94-1.66,8.06q5.86,11.86,11.75,23.74C425.87,375,426.37,376.25,427.41,378.59Zm-42.12-48.75c3.3.19,6.07.39,8.85.49,7.71.3,11.76-3.76,11.5-11.49-.3-9.19-11.27-15.37-19.08-10.67a3.33,3.33,0,0,0-1.21,2.45C385.25,316.9,385.29,323.17,385.29,329.84Z"/><path d="M526.17,288.91c1.49-.13,2.94-.37,4.39-.38,14.32,0,28.64.08,43-.07,3.59,0,5.16.89,4.9,4.76-.32,4.61-.08,9.26-.08,14.65-8.72,0-17,0-25.24,0-10.39.07-9.12-1.24-9.23,9.43-.07,6.47,0,6.48,6.62,6.49,5.16,0,10.33.22,15.48-.07,3.83-.22,4.78,1.29,4.81,4.9.13,13.71.24,13.71-13.42,13.71-.66,0-1.33,0-2,0-13.15.39-11.24-2.86-11.53,12.16-.06,3.3,1.26,4.4,4.41,4.35,8.49-.12,17,.12,25.47-.14,4.08-.12,5.77,1.14,5.4,5.36a81.43,81.43,0,0,0,0,10.48c.14,3-1,4.15-4,4.12q-22.72-.15-45.45-.05c-2.58,0-4-.55-4-3.56.09-28,.07-55.94.1-83.91A12.27,12.27,0,0,1,526.17,288.91Z"/><path d="M353.76,378.53c-6.1,0-11.56.21-17-.17-1.15-.08-2.65-2.16-3.12-3.61-3.35-10.36-3.27-10.4-14.11-10.46-4.5,0-9,.14-13.49,0-3.08-.12-4.32,1.18-5.12,4.09-2.8,10.21-2.92,10.18-13.78,10.23h-8.1c2.88-9.34,5.44-17.72,8-26.08,6.12-19.72,12.34-39.4,18.31-59.16,1.12-3.7,2.94-4.87,6.73-4.85,13.87.09,13.79,0,17.89,13.22,7.33,23.7,14.78,47.36,22.16,71C352.72,374.44,353.12,376.18,353.76,378.53Zm-36.52-64.12-1.24-.08-8.72,30.9h17.83C322.39,334.57,319.82,324.49,317.24,314.41Z"/><path d="M588.88,232.86v22.07c-1.65.16-3.22.45-4.78.46-16.66,0-33.31-.08-50,.13-4.21,0-5.31-1.33-5.29-5.44q.24-46.47,0-92.93c0-4.57,1.43-5.9,5.71-5.46a41.48,41.48,0,0,0,9,0c4.74-.55,6.29,1.07,6.23,6-.26,20.65-.1,41.3-.13,62,0,13.25-.06,13.25,13,13.25Z"/><path d="M653.66,307.88c-6,0-11.33.22-16.63-.07-4-.23-5.08,1.34-5.06,5.18.15,20-.06,40,.15,60,0,4.3-1,5.78-5.51,5.72-12.57-.16-12.56,0-12.56-12.56,0-17.67-.12-35.33.06-53,0-4.17-1.33-5.6-5.45-5.37-5.14.3-10.3.07-16.22.07,0-5.93-.14-11.52.14-17.1,0-.79,2.07-2.11,3.18-2.12,18.16-.13,36.33-.15,54.49.05,1.15,0,3.18,1.88,3.26,3C653.86,296.78,653.66,301.93,653.66,307.88Z"/><path d="M503.78,255.39c-6,0-11.64,0-17.26,0-3.78.05-3.12-2.62-3.12-4.87q0-29.46,0-58.92V152.23h20.39Z"/><path d="M466,381.89c5.15,0,9.65-.32,14.05.21,1.27.15,3,2.67,3.23,4.29,2.39,17,4.49,34,6.71,51,1.12,8.63,1.15,8.6-7.61,9.51-11.06,1.15-8.74,1.39-9.95-8.11-2.21-17.18-4.14-34.4-6.16-51.61C466.11,385.74,466.13,384.26,466,381.89Z"/><path class="cls-1" d="M339.46,537c.32-13.7-10.57-25.23-24.06-25.48a25,25,0,0,0-1,50C327.87,561.77,339.15,550.71,339.46,537Z"/><path d="M339.46,537c-.31,13.75-11.59,24.81-25,24.55a25,25,0,0,1,1-50C328.89,511.73,339.78,523.26,339.46,537Z"/></g></g></svg>