<svg xmlns="http://www.w3.org/2000/svg" viewBox="0 0 48 48">
  <path d="M24.109375 2.9941406C23.035875 2.9872656 21.960109 3.3677187 21.099609 4.1367188L20.095703 5.0332031L18.779297 4.7421875C16.526297 4.2391875 14.280594 5.5189375 13.558594 7.7109375L13.136719 8.9921875L11.849609 9.3964844C9.6466094 10.090484 8.3405469 12.318125 8.8105469 14.578125L9.0859375 15.898438L8.1757812 16.894531C6.6167812 18.596531 6.5987187 21.178391 8.1367188 22.900391L9.0332031 23.904297L8.7421875 25.220703C8.3937447 26.791483 8.9222885 28.344894 10.007812 29.394531L4.4394531 34.962891 A 1.50015 1.50015 0 0 0 5.0507812 37.455078L10.921875 39.298828L12.535156 44.914062 A 1.50015 1.50015 0 0 0 15.037109 45.560547L23.470703 37.126953 A 1.50015 1.50015 0 0 0 23.603516 36.976562C23.708598 36.984012 23.812664 37.005859 23.917969 37.005859C24.068917 37.005859 24.21876 36.982102 24.369141 36.966797L32.962891 45.560547 A 1.50015 1.50015 0 0 0 35.464844 44.914062L37.078125 39.298828L42.949219 37.455078 A 1.50015 1.50015 0 0 0 43.560547 34.962891L38.025391 29.427734C39.019787 28.395169 39.501189 26.920862 39.189453 25.421875L38.914062 24.101562L39.826172 23.107422C41.383172 21.405422 41.399328 18.823563 39.861328 17.101562L38.964844 16.095703L39.257812 14.779297C39.757812 12.525297 38.481062 10.280594 36.289062 9.5585938L35.007812 9.1367188L34.603516 7.8496094C33.910516 5.6466094 31.683875 4.3385469 29.421875 4.8105469L28.101562 5.0859375L27.105469 4.1757812C26.253969 3.3962812 25.182875 3.0010156 24.109375 2.9941406 z M 30.107422 15.896484C30.491172 15.896484 30.874969 16.042938 31.167969 16.335938C31.753969 16.921937 31.752969 17.870078 31.167969 18.455078L23.396484 26.226562C23.103484 26.519562 22.719938 26.666016 22.335938 26.666016C21.951937 26.666016 21.566437 26.519562 21.273438 26.226562L16.833984 21.787109C16.247984 21.202109 16.247984 20.251016 16.833984 19.666016C17.419984 19.080016 18.369078 19.080016 18.955078 19.666016L22.335938 23.046875L29.046875 16.335938C29.339875 16.042938 29.723672 15.896484 30.107422 15.896484 z M 12.833984 30.810547L12.992188 30.863281L13.396484 32.150391C14.090484 34.353391 16.313125 35.656453 18.578125 35.189453L19.898438 34.914062L20.705078 35.650391L14.714844 41.640625L13.582031 37.695312 A 1.50015 1.50015 0 0 0 12.589844 36.679688L8.3085938 35.335938L12.833984 30.810547 z M 35.246094 30.890625L39.691406 35.335938L35.410156 36.679688 A 1.50015 1.50015 0 0 0 34.417969 37.695312L33.285156 41.640625L27.220703 35.576172L27.904297 34.966797L29.220703 35.257812C31.473703 35.760813 33.719406 34.481062 34.441406 32.289062L34.865234 31.009766L35.246094 30.890625 z" fill="#AF1314" />
</svg>