<svg xmlns="http://www.w3.org/2000/svg" viewBox="0 0 539.23 505.53"><defs><style>.cls-1{fill:#fff;}.cls-2{fill:#aa1813;}</style></defs><g id="Calque_2" data-name="Calque 2"><g id="Calque_1-2" data-name="Calque 1"><rect class="cls-1" width="539.23" height="505.53" rx="58.43"/><path class="cls-2" d="M106.74,170.77c-5.88,2.92-12.07,5.34-17.57,8.85-16.92,10.78-21.22,26.29-13,44.63,5.26,11.82,13.15,21.79,22,31a351,351,0,0,0,65.13,52.89,444.78,444.78,0,0,0,72.15,36.76c30,12.23,60.87,21.56,93.19,25.15,19.72,2.2,39.62,2.87,59.12-1.1,15.08-3.06,26.89-11.67,31.9-27.07,2.81-8.66,1.65-17.46-1.45-26-.56-1.52-1.1-3.05-1.65-4.58l.75-.59a7.41,7.41,0,0,1,2,1.53c6.85,10.67,12.86,21.73,15.3,34.36,3.85,19.86-4.4,34.67-23.28,42.08a98.93,98.93,0,0,1-27.95,6.56c-.88.08-1.74.25-3,.43.15,1.3.22,2.47.42,3.63,1.22,7.33,1.62,14.63-.38,21.93a23.54,23.54,0,0,1-21.17,17.63q-47.67,2.76-95.36,5.4-56.22,3.21-112.44,6.45c-13.15.75-27-9-30.76-21.53a11.73,11.73,0,0,1-.39-3.64q1.64-57.3,3.28-114.6a5.18,5.18,0,0,0-1.44-3.61c-13.34-11.69-27.18-22.86-40.1-35C68.79,260,57.16,246.27,49.81,229.48c-3.37-7.7-5.28-15.67-3.39-24.14,1.81-8.06,6.58-14.06,13.19-18.71,11.9-8.38,25.62-11.88,39.62-14.61C101.74,171.53,104.28,171.18,106.74,170.77Zm136.5,203,.06-1.24c-.49-.23-1-.48-1.47-.7-21.44-9.75-43-19.26-64.28-29.33-13.58-6.43-27.35-12.69-38.86-22.74-.1-.09-.4.06-1.14.19-.46,13.47-1.41,27.05-1.19,40.62.13,8,9.36,15.07,17.48,14.88q35.17-.84,70.36-1.66C230.54,373.63,236.89,373.75,243.24,373.75Zm36.93,41.57c.19-13.45-10.1-24.33-23.17-24.48a23.93,23.93,0,1,0,23.17,24.48Z"/><path class="cls-2" d="M136.46,268.69c-4.74-4.16-8.92-7.67-12.87-11.42-.79-.75-1-2.4-1-3.62q.92-41.4,2-82.78c.79-31.39,2-62.78,2.21-94.17.08-11.9,10-22.15,21.46-22a134.45,134.45,0,0,1,24.2,2.85Q245,72.27,317.44,87.43c16.24,3.39,25.52,13.79,27.69,30.3,1.8,13.74,3.37,27.5,5.17,41.24a19.67,19.67,0,0,0,1.9,6c4.19,8.48,2.48,16.87-5.28,23.17a16.15,16.15,0,0,1,9.42,11.11,15.54,15.54,0,0,1,.92,5.57c-1.27,10.68,2.28,20.9,2.75,31.41.18,4,.89,7.9,1.35,11.81-6.33,1.22-6.33,1.22-6.32,7.6a100.29,100.29,0,0,0,.68,14.15l10-12.29c.49-.61,1-1.24,1.46-1.84,6.65-8.06,8.87-8.85,20.17-7-1.79,2.34-3.39,4.53-5.1,6.63-4.37,5.37-8.71,10.77-13.24,16-1.52,1.76-1.61,3-.4,4.95,5.83,9.39,11.52,18.87,17.25,28.32.67,1.11,1.25,2.28,2.2,4-4.72,0-8.82.23-12.87-.15-1.13-.11-2.32-1.88-3.09-3.13-4-6.46-7.84-13-11.75-19.52-.33-.55-.75-1.06-1.25-1.75-2.65,1.8-4.21,3.83-4.1,7.17.18,5.65.05,11.32.05,17.18H343.17V248.5l7-.44c-.95-8.11-1.87-16-2.83-24.15-10.79,3.19-21.44,1.36-32,1.88-2,.1-3.06-.46-3.06-2.76.06-21.57,0-43.14.05-64.71a18.94,18.94,0,0,1,.31-2h26.4c-.58-4.77-1.07-8.82-1.57-12.87-.92-7.43-2-14.84-2.69-22.29-.35-3.53-2.36-5.64-4.94-7.54-6-4.46-13.14-6-20.3-7.3q-48.15-8.62-96.31-17.19c-17.81-3.18-35.59-6.53-53.44-9.44a35,35,0,0,0-12.24.5c-4.6.92-7,4.61-7.14,9.35-.57,28.71-1.06,57.42-1.68,86.13-.64,29.94-1.4,59.88-2.11,89.82C136.65,266.29,136.57,267.05,136.46,268.69Zm190-64.62c.22,10.08-1.57,8.25,8.54,8.27,5.24,0,7.85-3.1,7.8-8.41,0-4.83-3-7.83-8.09-7.83C324.88,196.12,326.61,194.72,326.41,204.07Zm0-33.9c0,1.56,0,2.65,0,3.74,0,2.56-.1,5.14.15,7.67.08.76,1.17,2,1.85,2a26.59,26.59,0,0,0,7-.4,6.26,6.26,0,0,0,5.07-7.15,6.17,6.17,0,0,0-6.17-5.86C331.87,170,329.42,170.17,326.44,170.17Z"/><path class="cls-2" d="M215.61,226.23V185c-1,2.22-1.91,4.08-2.77,5.94-2.43,5.27-5,10.49-7.21,15.84-.93,2.24-2.5,2.15-4.31,2.13s-3.68.32-4.71-2.08c-2.67-6.26-5.59-12.41-8.42-18.6a6.41,6.41,0,0,0-2.17-2.87c0,1.22,0,2.45,0,3.67.18,11.39.33,22.78.59,34.16,0,2.21-.74,3-2.9,2.9a68.2,68.2,0,0,0-7.7,0c-2.44.15-3-1-3-3.17q.07-31.65,0-63.31c0-2.09.57-2.93,2.83-3,10.17-.27,10.17-.33,14.59,8.77,3.54,7.29,7.1,14.56,10.86,22.28,1-2.17,1.76-4.1,2.66-6,3.71-7.63,7.49-15.22,11.12-22.88a3.62,3.62,0,0,1,3.87-2.4c3.34.12,6.68,0,10.33,0,.1,1.19.25,2.14.25,3.09,0,21.22-.12,42.44-.08,63.66,0,2.43-.82,3.11-3.08,3C222.92,226.14,219.49,226.23,215.61,226.23Z"/><path class="cls-2" d="M299.45,191.44c-.08,11.07-2.44,21.33-10.92,29.22-11.84,11-31.7,8.46-39.8-5.49-9-15.5-9.14-31.6-.21-47.16,9.76-17,34-17.06,44.65-.51C297.88,174.85,299.43,182.92,299.45,191.44Zm-43.12-1.3c.81,4.61,1,8.36,2.17,11.8,1.63,4.95,4.54,9,10.39,9.67,6.05.69,10.62-1.62,13.17-7.07a29.84,29.84,0,0,0-.14-26.84c-2.18-4.44-6.13-6.72-11.15-6.76s-8.92,2.13-10.82,6.57C258.15,181.73,257.37,186.39,256.33,190.14Z"/><path class="cls-2" d="M452.39,156.63h40.5c0,4.56.12,9-.13,13.4,0,.62-1.89,1.59-2.92,1.62-6.7.14-13.41.19-20.11,0-2.83-.07-3.61.91-3.58,3.65.07,8.45,0,8.44,8.46,8.42,3.24,0,6.49.07,9.73,0,1.84,0,2.61.65,2.55,2.55q-.17,4.53,0,9.05c.06,2.07-.83,2.73-2.8,2.7-5-.08-10.06,0-15.09-.05-2,0-2.71.64-2.8,2.7-.47,10.21-.52,10.2,9.72,10.21,5,0,10.06.05,15.09,0,1.85,0,2.61.64,2.56,2.55-.09,3.35.13,6.71-.11,10-.07.89-1.36,2.41-2.1,2.42-12.52.14-25,.08-37.54,0a6.21,6.21,0,0,1-1.41-.39Z"/><path class="cls-2" d="M211.85,272.68c-3,6.58-5.79,12.28-8.29,18.09-1,2.33-2.39,3.13-4.86,3a3.77,3.77,0,0,1-3.82-2.51A177.58,177.58,0,0,0,186,273.34c0,1.1,0,2.19,0,3.29.16,9.61.27,19.21.54,28.81.07,2.45-.64,3.28-3.2,3.27-8.58-.06-8.61,0-8.62-8.57q0-23.64,0-47.26v-4.5c3.65,0,7-.19,10.23.13.94.09,2,1.54,2.55,2.6,3.73,7.62,7.33,15.3,11,22.95a4.67,4.67,0,0,0,.75.83c2.72-5.59,5.37-11.07,8-16.54a21.32,21.32,0,0,0,1.57-3.32c1.63-6.1,5.75-7.58,11.57-6.94,2.59.29,3.47.93,3.44,3.54-.14,12.06-.13,24.13-.16,36.19,0,5.93-.1,11.85,0,17.77.05,2.28-.6,3.13-3,3.17-8.91.16-8.89.24-8.87-8.68S211.85,282.5,211.85,272.68Z"/><path class="cls-2" d="M332.27,308.6c-4.49,0-8.37.15-12.22-.11-.86-.05-1.91-1.36-2.39-2.33-2.38-4.92-4.78-9.85-6.82-14.93-1.11-2.76-3.08-2.48-5.18-2.32-2.58.21-1.64,2.27-1.66,3.62-.1,5.23,0,10.46,0,16.13-3.73,0-7.16.15-10.55-.14-.59,0-1.44-2-1.45-3-.1-12.63-.06-25.26-.06-37.89V248.1c8.55.37,16.91-.19,24.9,1.3,10.42,1.95,16.12,14.13,12.73,25.76a21.42,21.42,0,0,1-5.45,8.94c-2,1.95-2.15,3.31-1.12,5.4,2.62,5.31,5.26,10.61,7.88,15.92C331.23,306.22,331.57,307,332.27,308.6ZM304,275.92c2.21.12,4.07.25,5.94.33,5.17.2,7.88-2.53,7.71-7.71-.2-6.17-7.56-10.31-12.8-7.15a2.21,2.21,0,0,0-.81,1.64C304,267.24,304,271.44,304,275.92Z"/><path class="cls-2" d="M398.48,248.47c1-.09,2-.25,2.95-.25,9.6,0,19.2.05,28.8-.05,2.41,0,3.46.6,3.28,3.19-.21,3.09-.05,6.21-.05,9.82-5.85,0-11.38,0-16.92,0-7,.05-6.12-.83-6.19,6.32-.05,4.34,0,4.35,4.43,4.36,3.46,0,6.93.14,10.38-.05,2.57-.15,3.21.86,3.23,3.29.09,9.19.16,9.19-9,9.19-.45,0-.9,0-1.34,0-8.82.26-7.54-1.92-7.73,8.15,0,2.21.84,2.95,3,2.92,5.69-.08,11.39.08,17.08-.09,2.73-.08,3.86.76,3.61,3.59a54.81,54.81,0,0,0,0,7c.09,2-.66,2.79-2.71,2.77q-15.24-.11-30.47,0c-1.73,0-2.68-.37-2.68-2.39.06-18.76,0-37.51.07-56.27A8.27,8.27,0,0,1,398.48,248.47Z"/><path class="cls-2" d="M282.88,308.56c-4.09,0-7.75.14-11.39-.11-.76-.06-1.77-1.45-2.09-2.42-2.24-6.95-2.19-7-9.46-7-3,0-6,.1-9,0-2.07-.08-2.9.79-3.43,2.74-1.89,6.85-2,6.83-9.25,6.86-1.62,0-3.24,0-5.42,0,1.92-6.26,3.64-11.88,5.38-17.49,4.11-13.22,8.28-26.42,12.28-39.67.75-2.48,2-3.26,4.52-3.25,9.29.06,9.24,0,12,8.87,4.92,15.89,9.91,31.75,14.86,47.63C282.18,305.82,282.45,307,282.88,308.56Zm-24.48-43-.84-.05c-1.92,6.82-3.85,13.63-5.85,20.72h12C261.85,279.09,260.12,272.33,258.4,265.57Z"/><path class="cls-2" d="M440.53,210.89v14.79c-1.1.11-2.15.31-3.2.31-11.17,0-22.34-.05-33.5.09-2.82,0-3.56-.89-3.55-3.65q.17-31.16,0-62.31c0-3.06,1-4,3.83-3.66a28.17,28.17,0,0,0,6,0c3.18-.37,4.22.72,4.17,4-.17,13.84-.06,27.69-.08,41.54,0,8.88,0,8.88,8.69,8.88Z"/><path class="cls-2" d="M484,261.19c-4,0-7.6.15-11.15-.05-2.71-.15-3.41.9-3.39,3.48.1,13.41,0,26.82.1,40.22,0,2.89-.67,3.89-3.69,3.85-8.44-.12-8.43,0-8.43-8.43,0-11.84-.08-23.69,0-35.53,0-2.8-.89-3.76-3.66-3.61-3.44.2-6.9.05-10.87.05,0-4-.09-7.73.1-11.46,0-.53,1.38-1.42,2.13-1.43q18.27-.14,36.53,0a3,3,0,0,1,2.19,2C484.11,253.75,484,257.2,484,261.19Z"/><path class="cls-2" d="M383.47,226c-4,0-7.8,0-11.57,0-2.53,0-2.09-1.76-2.09-3.27q0-19.76,0-39.51v-26.4h13.67Z"/><path class="cls-2" d="M358.16,310.82a80.3,80.3,0,0,1,9.41.14c.86.1,2,1.79,2.17,2.87,1.6,11.39,3,22.81,4.5,34.22.75,5.78.77,5.76-5.11,6.37-7.41.77-5.85.93-6.67-5.44-1.47-11.52-2.77-23.07-4.13-34.6C358.22,313.4,358.23,312.4,358.16,310.82Z"/><path class="cls-2" d="M273.3,414.79a16.58,16.58,0,1,0-33.15-.84,16.58,16.58,0,1,0,33.15.84Z"/><path class="cls-2" d="M273.3,414.79a16.58,16.58,0,1,1-16.14-17.08A16.75,16.75,0,0,1,273.3,414.79Z"/></g></g></svg>