<svg xmlns="http://www.w3.org/2000/svg" viewBox="0 0 48 48">
  <path d="M7.5 6C6.672 6 6 6.672 6 7.5L6 23.050781L6.0253906 23.025391C7.3923906 21.658391 9.6076094 21.658391 10.974609 23.025391C12.051609 24.101391 12.265484 25.701953 11.646484 27.001953L17.5 27.001953C19.433 27.001953 21 28.568953 21 30.501953C21 32.434953 19.433 34 17.5 34L11.646484 34C12.265484 35.3 12.051609 36.898609 10.974609 37.974609C10.291609 38.657609 9.396 39 8.5 39C7.7 39 6.9087656 38.712016 6.2597656 38.166016C6.9667656 40.386016 9.048 42 11.5 42L36.5 42C39.532 42 42 39.532 42 36.5L42 30.949219L41.974609 30.974609C41.290609 31.658609 40.396 32 39.5 32C38.604 32 37.709391 31.657609 37.025391 30.974609C35.949391 29.898609 35.733516 28.3 36.353516 27L30.5 27C28.567 27 27 25.433 27 23.5C27 21.567 28.567 20 30.5 20L36.353516 20C35.734516 18.7 35.948391 17.101391 37.025391 16.025391C38.392391 14.658391 40.606609 14.658391 41.974609 16.025391L42 16.050781L42 7.5C42 6.672 41.328 6 40.5 6L7.5 6 z M 20.5 13L27.5 13C28.328 13 29 13.672 29 14.5C29 15.328 28.328 16 27.5 16L20.5 16C19.672 16 19 15.328 19 14.5C19 13.672 19.672 13 20.5 13 z M 39.484375 16.984375 A 1.50015 1.50015 0 0 0 38.439453 19.560547L40.878906 22L30.5 22 A 1.50015 1.50015 0 1 0 30.5 25L40.878906 25L38.439453 27.439453 A 1.50015 1.50015 0 1 0 40.560547 29.560547L45.560547 24.560547 A 1.50015 1.50015 0 0 0 45.560547 22.439453L40.560547 17.439453 A 1.50015 1.50015 0 0 0 39.484375 16.984375 z M 8.4707031 23.986328 A 1.50015 1.50015 0 0 0 7.4394531 24.439453L2.4394531 29.439453 A 1.50015 1.50015 0 0 0 2.4394531 31.560547L7.4394531 36.560547 A 1.50015 1.50015 0 1 0 9.5605469 34.439453L7.1210938 32L17.5 32 A 1.50015 1.50015 0 1 0 17.5 29L7.1210938 29L9.5605469 26.560547 A 1.50015 1.50015 0 0 0 8.4707031 23.986328 z" fill="#AF1314" />
</svg>