<svg xmlns="http://www.w3.org/2000/svg" viewBox="0 0 48 48">
  <path d="M7.5 6C6.671 6 6 6.672 6 7.5L6 23.050781L6.0253906 23.025391C6.8363906 22.214391 7.946 21.896828 9 22.048828L9 9L39 9L39 15.048828C40.054 14.896828 41.163609 15.213391 41.974609 16.025391L42 16.050781L42 7.5C42 6.672 41.329 6 40.5 6L7.5 6 z M 20.5 13 A 1.50015 1.50015 0 1 0 20.5 16L27.5 16 A 1.50015 1.50015 0 1 0 27.5 13L20.5 13 z M 39.484375 16.984375 A 1.50015 1.50015 0 0 0 38.439453 19.560547L40.878906 22L30.5 22 A 1.50015 1.50015 0 1 0 30.5 25L40.878906 25L38.439453 27.439453 A 1.50015 1.50015 0 1 0 40.560547 29.560547L45.560547 24.560547 A 1.50015 1.50015 0 0 0 45.560547 22.439453L40.560547 17.439453 A 1.50015 1.50015 0 0 0 39.484375 16.984375 z M 8.4707031 23.986328 A 1.50015 1.50015 0 0 0 7.4394531 24.439453L2.4394531 29.439453 A 1.50015 1.50015 0 0 0 2.4394531 31.560547L7.4394531 36.560547 A 1.50015 1.50015 0 1 0 9.5605469 34.439453L7.1210938 32L17.5 32 A 1.50015 1.50015 0 1 0 17.5 29L7.1210938 29L9.5605469 26.560547 A 1.50015 1.50015 0 0 0 8.4707031 23.986328 z M 42 30.949219L41.974609 30.974609C41.291609 31.657609 40.396 32 39.5 32C39.333 32 39.166 31.975172 39 31.951172L39 36.5C39 37.879 37.878 39 36.5 39L8.5 39C7.7 39 6.9087656 38.712969 6.2597656 38.167969C6.9677656 40.386969 9.048 42 11.5 42L36.5 42C39.533 42 42 39.532 42 36.5L42 30.949219 z" fill="#AF1314" />
</svg>