<svg xmlns="http://www.w3.org/2000/svg" viewBox="0 0 48 48">
  <path d="M10 5 A 4 4 0 0 0 10 13 A 4 4 0 0 0 10 5 z M 21 7 A 2 2 0 0 0 21 11 A 2 2 0 0 0 21 7 z M 28 7 A 2.0002 2.0002 0 1 0 28 11L41 11 A 2.0002 2.0002 0 1 0 41 7L28 7 z M 28 15C27.8 15 27.609734 15.03875 27.427734 15.09375C27.786734 15.64375 28 16.296 28 17C28 17.704 27.786734 18.35625 27.427734 18.90625C27.609734 18.96125 27.8 19 28 19L41 19C42.104 19 43 18.104 43 17C43 15.896 42.104 15 41 15L28 15 z M 8 15.5C6.343 15.5 5 16.843 5 18.5L5 26.5L5 30L5 41.5 A 1.50015 1.50015 0 1 0 8 41.5L8 30L11 30L11 41.5 A 1.50015 1.50015 0 1 0 14 41.5L14 30L14 26.5L14 18.5L24.5 18.5 A 1.50015 1.50015 0 1 0 24.5 15.5L14 15.5L8 15.5 z M 21 23 A 2 2 0 0 0 21 27 A 2 2 0 0 0 21 23 z M 28 23 A 2.0002 2.0002 0 1 0 28 27L41 27 A 2.0002 2.0002 0 1 0 41 23L28 23 z M 21 31 A 2 2 0 0 0 21 35 A 2 2 0 0 0 21 31 z M 28 31 A 2.0002 2.0002 0 1 0 28 35L41 35 A 2.0002 2.0002 0 1 0 41 31L28 31 z M 21 39 A 2 2 0 0 0 21 43 A 2 2 0 0 0 21 39 z M 28 39 A 2.0002 2.0002 0 1 0 28 43L41 43 A 2.0002 2.0002 0 1 0 41 39L28 39 z" fill="#AF1314" />
</svg>