<?xml version="1.0" encoding="utf-8"?>
<svg xmlns="http://www.w3.org/2000/svg" viewBox="0 0 48 48" width="144" height="144">
  <path d="M5.4746094 3.984375 A 1.50015 1.50015 0 0 0 4.4296875 6.5605469L11.09375 13.224609C6.8076276 16.311892 4 21.3255 4 27C4 36.374 11.626 44 21 44C26.6745 44 31.688108 41.192372 34.775391 36.90625L41.429688 43.560547 A 1.50015 1.50015 0 1 0 43.550781 41.439453L6.5507812 4.4394531 A 1.50015 1.50015 0 0 0 5.4746094 3.984375 z M 30.5 4C26.756 4 23.365969 5.5339062 20.917969 8.0039062C20.945969 8.0039062 20.972 8 21 8C31.477 8 40 16.523 40 27C40 27.028 39.996094 27.054031 39.996094 27.082031C42.466094 24.634031 44 21.244 44 17.5C44 10.056 37.944 4 30.5 4 z M 21 10C19.577 10 18.202859 10.194391 16.880859 10.525391L37.474609 31.119141C37.805609 29.797141 38 28.423 38 27C38 17.626 30.374 10 21 10 z M 17.203125 19.333984L19.751953 21.882812L19.330078 24L21.5 24C21.631382 24 21.759563 24.010422 21.888672 24.019531L26.980469 29.111328C26.989519 29.240034 27 29.36903 27 29.5C27 32.738 24.532 35 21 35C17.922 35 15.964953 33.921828 15.751953 33.798828C15.033953 33.384828 14.786219 32.468953 15.199219 31.751953C15.611219 31.036953 16.524234 30.790312 17.240234 31.195312C17.288234 31.222313 18.742 32 21 32C22.851 32 24 31.042 24 29.5C24 28.122 22.879 27 21.5 27L17.5 27C17.051 27 16.624844 26.798172 16.339844 26.451172C16.054844 26.103172 15.942297 25.645078 16.029297 25.205078L17.203125 19.333984 z" fill="#AF1314" />
</svg>