<?xml version="1.0" encoding="utf-8"?>
<svg xmlns="http://www.w3.org/2000/svg" viewBox="0 0 48 48" width="144" height="144">
  <path d="M5.484375 3.984375 A 1.50015 1.50015 0 0 0 4.4394531 6.5605469L11.117188 13.238281C6.8308586 16.287565 4 21.348844 4 27C4 36.4 11.6 44 21 44C26.651156 44 31.712435 41.169141 34.761719 36.882812L41.439453 43.560547 A 1.50015 1.50015 0 1 0 43.560547 41.439453L6.5605469 4.4394531 A 1.50015 1.50015 0 0 0 5.484375 3.984375 z M 30.5 4C25.690837 4 21.545229 6.4811949 19.134766 10.216797C18.370808 10.304616 17.620025 10.43354 16.900391 10.599609L19.400391 13.099609C20.000391 12.999609 20.5 13 21 13C28.7 13 35 19.3 35 27C35 27.5 35.000391 27.999609 34.900391 28.599609L37.5 31.199219C37.67876 30.424591 37.815752 29.613545 37.902344 28.789062C41.586776 26.351905 44 22.176287 44 17.5C44 10.081818 37.918182 4 30.5 4 z M 30.5 7C36.281818 7 41 11.718182 41 17.5C41 20.409576 39.798978 23.063946 37.855469 24.982422C36.892419 17.220894 30.724271 11.0984 22.9375 10.216797C24.837054 8.2256646 27.467091 7 30.5 7 z M 13.265625 15.386719L17.230469 19.351562L16 25.199219C15.9 25.599219 16.000781 26.100391 16.300781 26.400391C16.600781 26.700391 17 26.900391 17.5 26.900391L21.5 26.900391C22.9 26.900391 24 28.000391 24 29.400391C24 30.900391 22.9 31.900391 21 31.900391C18.7 31.900391 17.299219 31.099609 17.199219 31.099609C16.499219 30.699609 15.599219 30.899219 15.199219 31.699219C14.799219 32.399219 15.000781 33.299219 15.800781 33.699219C16.000781 33.899219 17.9 35 21 35C24.5 35 27 32.7 27 29.5C27 29.365124 26.98844 29.232282 26.978516 29.099609L32.613281 34.734375C30.123497 38.499549 25.846528 41 21 41C13.3 41 7 34.7 7 27C7 22.153472 9.5004514 17.876503 13.265625 15.386719 z M 19.738281 21.859375L21.900391 24.021484C21.767718 24.01156 21.634876 24 21.5 24L19.300781 24L19.738281 21.859375 z" fill="#AF1314" />
</svg>