<svg xmlns="http://www.w3.org/2000/svg" viewBox="0 0 48 48">
  <path d="M9.5 5C7.5850452 5 6 6.5850452 6 8.5L6 11.210938L4.1074219 15.943359 A 1.50015 1.50015 0 0 0 4.1972656 17.242188 A 1.50015 1.50015 0 0 0 4.1972656 17.244141C4.4255533 18.839081 5.0641162 20.30273 6 21.521484L6 42.5 A 1.50015 1.50015 0 0 0 7.5 44L40.5 44 A 1.50015 1.50015 0 0 0 42 42.5L42 21.525391C42.93955 20.303208 43.579477 18.832965 43.806641 17.232422 A 1.50015 1.50015 0 0 0 43.892578 15.943359L42 11.210938L42 8.5C42 6.5850452 40.414955 5 38.5 5L9.5 5 z M 9.5 8L38.5 8C38.795045 8 39 8.2049548 39 8.5L39 11.5 A 1.50015 1.50015 0 0 0 39.107422 12.056641L40.925781 16.603516C40.61678 19.635474 38.120928 22 35 22C33.332692 22 31.840802 21.329533 30.753906 20.240234 A 1.50015 1.50015 0 0 0 28.6875 20.185547C27.440099 21.313006 25.810875 22 24 22C22.189125 22 20.559901 21.313006 19.3125 20.185547 A 1.50015 1.50015 0 0 0 17.246094 20.240234C16.159198 21.32953 14.667308 22 13 22C9.8778428 22 7.3823584 19.63533 7.0742188 16.603516L8.8925781 12.056641 A 1.50015 1.50015 0 0 0 9 11.5L9 8.5C9 8.2049548 9.2049548 8 9.5 8 z M 29.5 10 A 1.5 1.5 0 0 0 29.5 13 A 1.5 1.5 0 0 0 29.5 10 z M 34.5 10 A 1.5 1.5 0 0 0 34.5 13 A 1.5 1.5 0 0 0 34.5 10 z M 18.335938 23.054688C19.960763 24.20091 21.862238 25 24 25C26.137762 25 28.039237 24.200909 29.664062 23.054688C31.174664 24.19798 32.967968 25 35 25C36.445243 25 37.801322 24.648914 39 24.033203L39 41L35 41L35 29.5 A 1.50015 1.50015 0 0 0 33.5 28L22.5 28 A 1.50015 1.50015 0 0 0 21 29.5L21 41L9 41L9 24.033203C10.19861 24.649179 11.554288 25 13 25C15.032032 25 16.825336 24.19798 18.335938 23.054688 z M 24 31L32 31L32 41L24 41L24 31 z" fill="#AF1314" />
</svg>