<svg xmlns="http://www.w3.org/2000/svg" viewBox="0 0 48 48">
  <path d="M9.5 5C7.57 5 6 6.57 6 8.5L6 10.210938L4.1074219 14.943359C3.9914219 15.232359 3.974875 15.545844 4.046875 15.839844C4.475875 20.435844 8.362 24 13 24C14.952 24 16.809609 23.383234 18.349609 22.240234C20.008609 23.382234 21.972 24 24 24C26.028 24 27.991391 23.382234 29.650391 22.240234C31.190391 23.383234 33.048 24 35 24C39.62 24 43.493266 20.464484 43.947266 15.896484C44.032266 15.585484 44.015578 15.250359 43.892578 14.943359L42 10.210938L42 8.5C42 6.57 40.43 5 38.5 5L9.5 5 z M 31.5 8C32.328 8 33 8.672 33 9.5C33 10.328 32.328 11 31.5 11C30.672 11 30 10.328 30 9.5C30 8.672 30.672 8 31.5 8 z M 36.5 8C37.328 8 38 8.672 38 9.5C38 10.328 37.328 11 36.5 11C35.672 11 35 10.328 35 9.5C35 8.672 35.672 8 36.5 8 z M 6 24.697266L6 42.5C6 43.328 6.672 44 7.5 44L21 44L21 31.5C21 30.672 21.672 30 22.5 30L33.5 30C34.328 30 35 30.672 35 31.5L35 44L40.5 44C41.328 44 42 43.328 42 42.5L42 24.751953C40.026 26.168953 37.61 27 35 27C33.097 27 31.264469 26.563609 29.605469 25.724609C27.862469 26.562609 25.956 27 24 27C22.044 27 20.137531 26.562609 18.394531 25.724609C16.735531 26.563609 14.903 27 13 27C10.413 27 7.987 26.141266 6 24.697266 z M 24 33L24 44L32 44L32 33L24 33 z" fill="#AF1314" />
</svg>