<svg xmlns="http://www.w3.org/2000/svg" viewBox="0 0 48 48">
  <path d="M22.5 4.0097656C21.394215 4.0097427 20.288142 4.4267019 19.453125 5.2617188L13.714844 11L10.740234 11L10.675781 10.658203C10.272657 8.5455322 8.4069705 7 6.2558594 7L3.5 7 A 1.50015 1.50015 0 1 0 3.5 10L6.2558594 10C6.9837923 10 7.5905865 10.502924 7.7285156 11.21875L8.0234375 12.765625C8.0242629 12.770214 8.0245217 12.774711 8.0253906 12.779297L11.251953 29.716797C11.834953 32.778797 14.521672 35 17.638672 35L22 35C22 33.967 22.120656 32.963 22.347656 32L17.638672 32C15.960672 32 14.512219 30.803297 14.199219 29.154297L11.3125 14L39.277344 14 A 1.50015 1.50015 0 0 0 39.769531 14L42.6875 14L40.896484 23.410156C41.875484 23.909156 42.782609 24.528047 43.599609 25.248047L45.974609 12.779297C46.057609 12.341297 45.94125 11.885969 45.65625 11.542969C45.37025 11.198969 44.947 11 44.5 11L40.121094 11L35.298828 6.1757812C33.766145 4.6430985 31.235808 4.6430985 29.703125 6.1757812L28.082031 7.796875L25.546875 5.2636719L25.544922 5.2617188C24.710554 4.4276323 23.604907 4.0097885 22.5 4.0097656 z M 22.5 6.9902344C22.831568 6.9903324 23.162476 7.1212214 23.423828 7.3828125L27.039062 11L17.958984 11L21.574219 7.3828125C21.836202 7.1208294 22.168432 6.9901364 22.5 6.9902344 z M 32.5 8.0058594C32.74155 8.0058594 32.984076 8.1032164 33.177734 8.296875L35.878906 11L31.285156 11L30.203125 9.9179688L31.824219 8.296875C32.017877 8.1032164 32.25845 8.0058594 32.5 8.0058594 z M 35 24C28.925 24 24 28.925 24 35C24 41.075 28.925 46 35 46C41.075 46 46 41.075 46 35C46 28.925 41.075 24 35 24 z M 34 28C34.552 28 35 28.448 35 29L35 35L40 35C40.552 35 41 35.448 41 36C41 36.552 40.552 37 40 37L34 37C33.448 37 33 36.552 33 36L33 29C33 28.448 33.448 28 34 28 z M 20 37 A 3 3 0 0 0 20 43 A 3 3 0 0 0 20 37 z" fill="#AF1314" />
</svg>