<svg xmlns="http://www.w3.org/2000/svg" viewBox="0 0 48 48">
  <path d="M8.5 5C7.1364058 5 6 6.1364058 6 7.5L6 14.5C6 15.692499 6.8698775 16.712342 8 16.949219L8 38.5C8 40.967501 10.032499 43 12.5 43L35.5 43C37.967501 43 40 40.967501 40 38.5L40 16.949219C41.130122 16.712342 42 15.692499 42 14.5L42 7.5C42 6.1364058 40.863594 5 39.5 5L8.5 5 z M 9 8L39 8L39 14L38.5 14L9.5 14L9 14L9 8 z M 11 17L37 17L37 38.5C37 39.346499 36.346499 40 35.5 40L12.5 40C11.653501 40 11 39.346499 11 38.5L11 17 z M 19.5 21 A 1.50015 1.50015 0 1 0 19.5 24L28.5 24 A 1.50015 1.50015 0 1 0 28.5 21L19.5 21 z" fill="#AF1314" />
</svg>