<svg xmlns="http://www.w3.org/2000/svg" viewBox="0 0 48 48">
  <path d="M35.470703 4.9863281 A 1.50015 1.50015 0 0 0 35.310547 5L30.5 5 A 1.50015 1.50015 0 1 0 30.5 8L31.878906 8L26.5 13.378906L21.560547 8.4394531 A 1.50015 1.50015 0 0 0 19.439453 8.4394531L13.439453 14.439453 A 1.50015 1.50015 0 1 0 15.560547 16.560547L20.5 11.621094L25.439453 16.560547 A 1.50015 1.50015 0 0 0 27.560547 16.560547L34 10.121094L34 11.5 A 1.50015 1.50015 0 1 0 37 11.5L37 6.6738281 A 1.50015 1.50015 0 0 0 35.470703 4.9863281 z M 8.5 19C6.5850452 19 5 20.585045 5 22.5L5 39.5C5 41.414955 6.5850452 43 8.5 43L39.5 43C41.414955 43 43 41.414955 43 39.5L43 22.5C43 20.585045 41.414955 19 39.5 19L8.5 19 z M 11 22L37 22C37 23.66 38.34 25 40 25L40 37C38.34 37 37 38.34 37 40L11 40C11 38.34 9.66 37 8 37L8 25C9.66 25 11 23.66 11 22 z M 24 24C22.041667 24 20.395258 24.984106 19.412109 26.335938C18.428961 27.687767 18 29.352273 18 31C18 32.647727 18.428961 34.312233 19.412109 35.664062C20.395258 37.015893 22.041667 38 24 38C25.958333 38 27.604742 37.015893 28.587891 35.664062C29.571039 34.312233 30 32.647727 30 31C30 29.352273 29.571039 27.687768 28.587891 26.335938C27.604742 24.984107 25.958333 24 24 24 z M 24 27C25.041666 27 25.645259 27.390894 26.162109 28.101562C26.67896 28.812233 27 29.897727 27 31C27 32.102273 26.67896 33.187767 26.162109 33.898438C25.645259 34.609107 25.041666 35 24 35C22.958334 35 22.354741 34.609107 21.837891 33.898438C21.32104 33.187767 21 32.102273 21 31C21 29.897727 21.32104 28.812232 21.837891 28.101562C22.354741 27.390893 22.958334 27 24 27 z M 12 29 A 2 2 0 0 0 12 33 A 2 2 0 0 0 12 29 z M 36 29 A 2 2 0 0 0 36 33 A 2 2 0 0 0 36 29 z" fill="#AF1314" />
</svg>