<svg xmlns="http://www.w3.org/2000/svg" viewBox="0 0 48 48">
  <path d="M31.5 3C28.812522 3 26.502381 4.6543484 25.517578 7C25.511663 6.9999861 25.505918 7 25.5 7C21.37563 7 18 10.375633 18 14.5C18 18.624367 21.37563 22 25.5 22C29.16307 22 32.229627 19.334736 32.871094 15.849609C35.790978 15.214358 38 12.601537 38 9.5C38 5.9280619 35.071938 3 31.5 3 z M 31.5 6C33.450062 6 35 7.5499381 35 9.5C35 10.993594 34.087023 12.244443 32.785156 12.751953C32.234224 10.471553 30.637872 8.5900061 28.533203 7.6503906C29.147905 6.662469 30.236084 6 31.5 6 z M 25.5 10C28.003051 10 30 11.99695 30 14.5C30 17.00305 28.003051 19 25.5 19C22.996949 19 21 17.00305 21 14.5C21 11.99695 22.996949 10 25.5 10 z M 41.613281 22.019531C40.493082 22.029231 39.429184 22.473279 38.484375 23.175781C37.470126 23.929243 34.418425 26.208042 31.777344 28.179688C31.204622 26.351508 29.505924 25 27.5 25L23.107422 25C20.296203 25 18.985532 24.772226 17.859375 24.533203C16.733218 24.29418 15.646783 24 13.826172 24C9.9413941 24 7.0123317 26.492986 5.09375 28.791016C3.1751683 31.089045 2.1347656 33.384766 2.1347656 33.384766 A 1.5002787 1.5002787 0 1 0 4.8652344 34.628906C4.8652344 34.628906 5.7643161 32.669814 7.3964844 30.714844C9.0286527 28.759873 11.25995 27 13.826172 27C15.347561 27 16.006735 27.20582 17.236328 27.466797C18.465921 27.727774 20.123641 28 23.107422 28L27.5 28C28.346499 28 29 28.653501 29 29.5C29 29.969499 28.794195 30.374296 28.470703 30.646484C28.470416 30.646699 28.429688 30.677734 28.429688 30.677734 A 1.5001988 1.5001988 0 0 0 28.34375 30.75C28.105295 30.908613 27.816466 31 27.5 31L20.5 31 A 1.50015 1.50015 0 1 0 20.5 34L27.5 34C28.442153 34 29.318534 33.700976 30.044922 33.197266 A 1.5001988 1.5001988 0 0 0 30.224609 33.082031C30.224609 33.082031 38.775959 26.696426 40.273438 25.583984 A 1.50015 1.50015 0 0 0 40.273438 25.582031C40.837627 25.162534 41.309824 25.022381 41.640625 25.019531C41.971426 25.016631 42.218287 25.096901 42.560547 25.439453C43.150922 26.029324 43.147391 26.935102 42.572266 27.533203C37.217133 32.036197 33.848465 35.036886 31.623047 36.794922C29.369881 38.574924 28.424996 39 27.5 39C23.847885 39 19.80067 38 15.5 38C13 38 11.242781 39.343609 10.300781 40.599609C9.3587815 41.855609 9.0449219 43.136719 9.0449219 43.136719 A 1.50015 1.50015 0 1 0 11.955078 43.863281C11.955078 43.863281 12.141219 43.144391 12.699219 42.400391C13.257219 41.656391 14 41 15.5 41C19.30733 41 23.336115 42 27.5 42C29.402004 42 31.084837 41.044435 33.482422 39.150391C35.849764 37.280238 39.175413 34.30991 44.498047 29.833984 A 1.50015 1.50015 0 0 0 44.681641 29.681641C44.688541 29.674741 44.690436 29.665143 44.697266 29.658203L44.701172 29.662109L44.753906 29.607422 A 1.50015 1.50015 0 0 0 45.083984 29.074219C46.330485 27.321792 46.248887 24.884269 44.681641 23.318359C43.8529 22.488911 42.73348 22.009881 41.613281 22.019531 z" fill="#AF1314" />
</svg>