<svg xmlns="http://www.w3.org/2000/svg" viewBox="0 0 48 48">
  <path d="M33.5 4h-13C18.019 4 16 6.019 16 8.5v9c0 2.481 2.019 4.5 4.5 4.5h13c2.481 0 4.5-2.019 4.5-4.5v-9C38 6.019 35.981 4 33.5 4zM29.5 12h-5c-.828 0-1.5-.671-1.5-1.5S23.672 9 24.5 9h5c.828 0 1.5.671 1.5 1.5S30.328 12 29.5 12zM43.368 22c-1.026 0-2.153.675-4.546 1.917-1.984 1.03-3.818 2.009-4.983 2.723C33.941 27.078 34 27.532 34 28c0 3.309-2.691 6-6 6h-7.5c-.828 0-1.5-.671-1.5-1.5s.672-1.5 1.5-1.5H28c1.654 0 3-1.346 3-3 0-.897-.404-1.695-1.03-2.245C29.259 25.285 28.415 25 27.5 25h-4.393H22.5c-.029 0-.056-.007-.085-.009-2.636-.042-3.902-.314-5.015-.558C16.389 24.21 15.433 24 13.827 24 6.495 24 2.31 33.001 2.135 33.384c-.226.496-.165 1.074.158 1.512l7 9.494c.285.387.734.604 1.204.604.095 0 .189-.009.284-.027.566-.107 1.023-.536 1.171-1.093C12.031 43.58 12.795 41 15.5 41c1.952 0 3.972.252 5.924.495C23.413 41.744 25.471 42 27.5 42c2.764 0 4.752-2.119 10.5-8 7.301-7.471 8-8.124 8-9.606C46 23.113 44.875 22 43.368 22z" fill="#AF1314" />
</svg>