<svg xmlns="http://www.w3.org/2000/svg" viewBox="0 0 48 48">
  <path d="M22.998047 4C17.484047 4 12.998047 8.486 12.998047 14C12.998047 19.514 17.484047 24 22.998047 24C28.512047 24 32.998047 19.514 32.998047 14C32.998047 8.486 28.512047 4 22.998047 4 z M 37 23C36.69425 23 36.387719 23.126906 36.199219 23.378906C33.548219 26.912906 29.042 26.978516 29 26.978516C28.448 26.978516 28 27.426516 28 27.978516L28 34C28 43.669 36.670813 45.948703 36.757812 45.970703C36.837813 45.990703 36.918 46 37 46C37.082 46 37.162187 45.990703 37.242188 45.970703C37.329188 45.948703 46 43.669 46 34L46 27.978516C46 27.428516 45.553906 26.981516 45.003906 26.978516C44.958906 26.978516 40.451781 26.912906 37.800781 23.378906C37.612281 23.126906 37.30575 23 37 23 z M 10.978516 27.998047C8.7845156 27.998047 6.9980469 29.784516 6.9980469 31.978516L6.9980469 33.498047C6.9980469 36.810047 8.8846406 39.6745 12.306641 41.5625C15.154641 43.1335 18.951047 43.998047 22.998047 43.998047L23.001953 43.998047C25.172953 43.998047 27.266547 43.742531 29.185547 43.269531C27.410547 41.158531 26 38.17 26 34L26 27.998047L10.978516 27.998047 z" fill="#AF1314" />
</svg>