<svg xmlns="http://www.w3.org/2000/svg" viewBox="0 0 48 48">
  <path d="M24 5.015625C22.851301 5.015625 21.70304 5.3892757 20.753906 6.1367188 A 1.50015 1.50015 0 0 0 20.751953 6.1367188L8.859375 15.507812C7.0554772 16.929445 6 19.101786 6 21.398438L6 39.488281C6 41.403236 7.5850452 42.988281 9.5 42.988281L38.5 42.988281C40.414955 42.988281 42 41.403236 42 39.488281L42 21.398438C42 19.101786 40.944523 16.929445 39.140625 15.507812L27.246094 6.1367188C26.29696 5.3892758 25.148699 5.015625 24 5.015625 z M 24 8.0078125C24.489801 8.0078125 24.979759 8.1705836 25.390625 8.4941406L37.285156 17.865234C38.368508 18.719618 39 20.019609 39 21.398438L39 39.488281C39 39.783326 38.795045 39.988281 38.5 39.988281L36 39.988281L36 32.5C36 30.585045 34.414955 29 32.5 29L31 29L31 22.5C31 20.585045 29.414955 19 27.5 19L20.5 19C18.585045 19 17 20.585045 17 22.5L17 29L15.5 29C13.585045 29 12 30.585045 12 32.5L12 39.988281L9.5 39.988281C9.2049548 39.988281 9 39.783326 9 39.488281L9 21.398438C9 20.019088 9.6307412 18.71765 10.714844 17.863281L22.609375 8.4941406C23.020241 8.1705836 23.510199 8.0078125 24 8.0078125 z M 20.5 22L27.5 22C27.795045 22 28 22.204955 28 22.5L28 29L20 29L20 22.5C20 22.204955 20.204955 22 20.5 22 z M 15.5 32L22.5 32L22.5 39.988281L15 39.988281L15 32.5C15 32.204955 15.204955 32 15.5 32 z M 25.5 32L32.5 32C32.795045 32 33 32.204955 33 32.5L33 39.988281L25.5 39.988281L25.5 32 z" fill="#AF1314" />
</svg>