<svg xmlns="http://www.w3.org/2000/svg" viewBox="0 0 48 48">
  <path d="M42.470703 3.9863281 A 1.50015 1.50015 0 0 0 41.439453 4.4394531L4.4394531 41.439453 A 1.50015 1.50015 0 1 0 6.5605469 43.560547L20.615234 29.505859C23.935057 28.306571 27.799161 29.027677 30.460938 31.689453C30.850937 32.079453 31.359141 32.269531 31.869141 32.269531C32.379141 32.269531 32.889297 32.079453 33.279297 31.689453C34.059297 30.899453 34.059297 29.639375 33.279297 28.859375C30.995408 26.575486 28.083659 25.306951 25.097656 25.023438L29.259766 20.861328C32.006153 21.706115 34.588292 23.209386 36.759766 25.380859C37.149766 25.770859 37.659687 25.970703 38.179688 25.970703C38.689687 25.970703 39.199844 25.770859 39.589844 25.380859C40.369844 24.600859 40.369844 23.330781 39.589844 22.550781C37.46251 20.423447 35.003068 18.82353 32.380859 17.740234L36.09375 14.027344C38.609268 15.28915 40.968593 16.968593 43.070312 19.070312C43.460312 19.460313 43.970469 19.660156 44.480469 19.660156C44.990469 19.660156 45.510391 19.460313 45.900391 19.070312C46.680391 18.290312 46.680391 17.030234 45.900391 16.240234C43.818864 14.158708 41.507068 12.437625 39.048828 11.072266L43.560547 6.5605469 A 1.50015 1.50015 0 0 0 42.470703 3.9863281 z M 22.783203 7.1328125C15.129717 7.3782983 7.5535938 10.417109 1.7304688 16.240234C0.95046875 17.030234 0.95046875 18.290312 1.7304688 19.070312C2.5104687 19.850313 3.7707812 19.850313 4.5507812 19.070312C11.410781 12.210312 21.039375 9.7792969 29.859375 11.779297L33.109375 8.5292969C29.75625 7.4855469 26.262061 7.021228 22.783203 7.1328125 z M 24.371094 16.03125C18.470374 15.88949 12.519922 18.060156 8.0292969 22.550781C7.2492969 23.330781 7.2492969 24.600859 8.0292969 25.380859C8.8092969 26.160859 10.079375 26.160859 10.859375 25.380859C13.839375 22.400859 17.590703 20.669922 21.470703 20.169922L25.550781 16.089844C25.158281 16.059844 24.764475 16.040701 24.371094 16.03125 z M 24 34 A 4 4 0 0 0 24 42 A 4 4 0 0 0 24 34 z" fill="#AF1314" />
</svg>